<?xml version="1.0" encoding="utf-8"?><svg id="Layer_1" data-name="Layer 1" xmlns="http://www.w3.org/2000/svg" viewBox="0 0 360 360"><defs><style>.cls-1{fill:#fff}.cls-2{fill:none}.cls-3{fill:#94b777;fill-rule:evenodd}</style></defs><title>envelope icon</title><g id="button-bg-copy"><rect id="path-3" class="cls-1" x="5" y="5.04" width="349.92" height="349.92" rx="9.98" ry="9.98"/><rect id="path-3-2" data-name="path-3" class="cls-2" x="5" y="5.04" width="349.92" height="349.92" rx="9.98" ry="9.98"/><rect id="path-3-3" data-name="path-3" class="cls-2" x="5" y="5.04" width="349.92" height="349.92" rx="9.98" ry="9.98"/><rect id="path-3-4" data-name="path-3" class="cls-2" x="5" y="5.04" width="349.92" height="349.92" rx="9.98" ry="9.98"/></g><path class="cls-3" d="M270 253.87H89.11a12 12 0 0 1-12-12V117a12 12 0 0 1 12-12H270a12 12 0 0 1 12 12v124.87a12 12 0 0 1-12 12zm-49-72.62l29.79-29.5a8.88 8.88 0 0 0 0-12.61l-1.67-1.64a9.09 9.09 0 0 0-12.73 0l-54.38 53.87h-4.92l-54.38-53.87a9.07 9.07 0 0 0-12.71 0l-1.67 1.64a8.88 8.88 0 0 0 0 12.61l30.19 29.9-29.71 25.25a8.88 8.88 0 0 0-1 12.57l1.52 1.77a9.1 9.1 0 0 0 12.69 1L153 195.95l11 10.88a9 9 0 0 0 3.94 2.27 8.87 8.87 0 0 0 3.83.86h15.63a8.58 8.58 0 0 0 3.69-.82 8.88 8.88 0 0 0 4.11-2.3l11.8-11.63 30.44 25.85a9.06 9.06 0 0 0 12.65-1l1.25-1.45a8.87 8.87 0 0 0-1-12.53z"/></svg>
